PathFileType	4	(X/Y/Z)	s05c0402.trc
DataRate	CameraRate	NumFrames	NumMarkers	Units	OrigDataRate	OrigDataStartFrame	OrigNumFrames
200	200	4	50	mm	200	0	2000
Frame#	Time	racr			lacr			c7			jug			rlel			rdr			llel			ldr			s2			lic			ric			lasi			rasi			rpsi			lpsi			rgt			lgt			rth1			rth2			rth3			rth4			rlfc			rmfc			rsh1			rsh2			rsh3			rsh4			rlmal			rmmal			rcal			rtoe			rmt5			lth1			lth2			lth4			lth3			llfc			lmfc			lsh1			lsh2			lsh3			lsh4			llmal			lmmal			lcal			ltoe			lmt5			SBIKE			LBIKE			RBIKE			
		X1	Y1	Z1	X2	Y2	Z2	X3	Y3	Z3	X4	Y4	Z4	X5	Y5	Z5	X6	Y6	Z6	X7	Y7	Z7	X8	Y8	Z8	X9	Y9	Z9	X10	Y10	Z10	X11	Y11	Z11	X12	Y12	Z12	X13	Y13	Z13	X14	Y14	Z14	X15	Y15	Z15	X16	Y16	Z16	X17	Y17	Z17	X18	Y18	Z18	X19	Y19	Z19	X20	Y20	Z20	X21	Y21	Z21	X22	Y22	Z22	X23	Y23	Z23	X24	Y24	Z24	X25	Y25	Z25	X26	Y26	Z26	X27	Y27	Z27	X28	Y28	Z28	X29	Y29	Z29	X30	Y30	Z30	X31	Y31	Z31	X32	Y32	Z32	X33	Y33	Z33	X34	Y34	Z34	X35	Y35	Z35	X36	Y36	Z36	X37	Y37	Z37	X38	Y38	Z38	X39	Y39	Z39	X40	Y40	Z40	X41	Y41	Z41	X42	Y42	Z42	X43	Y43	Z43	X44	Y44	Z44	X45	Y45	Z45	X46	Y46	Z46	X47	Y47	Z47	X48	Y48	Z48	X49	Y49	Z49	X50	Y50	Z50	
0	0.0000	393.291743	1396.184369	-161.714136	387.334334	1400.817799	-455.288545	378.636678	1477.868220	-309.038264	357.049202	1319.445086	-306.469922	492.769109	1156.187099	-57.699015	680.427239	965.842414	-86.328693	461.357358	1142.714260	-552.760887	674.604048	966.748537	-506.506202	-112.249531	1148.708261	-281.342823	25.148707	1169.789831	-426.319308	32.951054	1196.259755	-146.152810	82.562570	1124.999407	-392.246713	79.812452	1135.693309	-172.897058	-85.022601	1197.000574	-242.129443	-84.111760	1197.450003	-329.004028	3.667293	1064.509285	-107.716584	-32.167675	1057.992451	-448.006870	103.985324	1013.498736	-90.585826	191.863522	1000.506294	-83.380763	259.808411	944.330969	-80.670049	206.489173	1032.385109	-95.859098	400.686315	868.590122	-100.371609	392.247761	864.970728	-210.881017	336.473020	776.261502	-82.895166	325.390833	689.742587	-96.138115	273.567244	620.244180	-103.871520	353.006308	681.254868	-121.352873	227.214540	495.758575	-120.129598	240.506741	528.972425	-196.606973	155.455300	464.524348	-167.305672	448.634249	437.199819	-160.246848	347.137049	415.801449	-95.131576	47.183577	940.879555	-469.926174	115.780812	890.177613	-473.595681	145.814115	909.807760	-461.988358	149.305176	805.474643	-477.797346	218.973879	671.324348	-453.057850	214.295341	662.624989	-342.858676	124.552406	582.496425	-468.475179	89.518383	503.279760	-453.304820	17.052805	452.547233	-446.772186	115.902077	486.455531	-431.010822	-53.336613	350.787770	-431.901092	-17.885556	373.067178	-357.870209	-123.600696	325.464548	-386.402902	155.848120	236.529668	-403.067599	42.996837	237.050880	-462.200867	-265.454877	893.866471	-285.776315	-53.528392	79.090982	-474.922295	-53.257134	78.775090	-77.292680	
1	0.0050	393.319405	1396.164512	-161.779258	387.342370	1400.809591	-455.320205	378.692028	1477.805436	-309.109915	357.044833	1319.385201	-306.514720	492.750418	1156.181197	-57.731711	680.405592	965.827834	-86.435609	461.351903	1142.711111	-552.788208	674.614544	966.737246	-506.550116	-112.234029	1148.703538	-281.359358	25.128884	1169.777133	-426.378171	32.972976	1196.249847	-146.164209	82.555145	1124.979757	-392.314906	79.842135	1135.698556	-172.946097	-84.994263	1197.008448	-242.163605	-84.087563	1197.451449	-329.044632	3.690059	1064.508120	-107.751204	-32.181976	1057.983577	-448.023434	104.034146	1013.514088	-90.627233	191.928420	1000.533256	-83.455322	259.868054	944.350674	-80.749086	206.547652	1032.417799	-95.939272	400.727486	868.651034	-100.479278	392.264572	865.001338	-210.995798	336.475991	776.304847	-83.016593	325.414636	689.776865	-96.227994	273.595432	620.314098	-103.952030	353.017091	681.294390	-121.418781	227.213885	495.816697	-120.147810	240.512622	528.998460	-196.623859	155.446700	464.573131	-167.319075	448.619799	437.227188	-160.252185	347.103592	415.835766	-95.135205	47.167088	940.858936	-469.959518	115.753528	890.143378	-473.619655	145.792265	909.780708	-462.023677	149.256621	805.392646	-477.794606	218.949281	671.283188	-453.079168	214.267560	662.609235	-342.869011	124.533528	582.458260	-468.486397	89.495040	503.244532	-453.317966	17.045238	452.494682	-446.759955	115.890394	486.424332	-431.021452	-53.331645	350.735844	-431.880339	-17.880721	373.034715	-357.886663	-123.596590	325.410611	-386.394133	155.862190	236.504903	-403.068805	43.025084	236.975935	-462.185715	-265.494326	893.804272	-285.972191	-53.539976	79.156386	-474.979313	-53.246137	78.766595	-77.293033	
2	0.0100	393.311569	1396.159539	-161.825601	387.348618	1400.792157	-455.338006	378.746421	1477.774487	-309.144487	357.028294	1319.369253	-306.569917	492.735297	1156.159033	-57.786143	680.377281	965.815481	-86.525512	461.366239	1142.701953	-552.817820	674.617721	966.739751	-506.579275	-112.229323	1148.716731	-281.368382	25.107518	1169.760920	-426.415498	32.997553	1196.253306	-146.190286	82.548230	1124.974855	-392.355514	79.865184	1135.703002	-172.990913	-84.969956	1197.015138	-242.185061	-84.075184	1197.458881	-329.055546	3.719811	1064.509756	-107.766842	-32.191858	1057.968541	-448.044683	104.086721	1013.543295	-90.663770	191.965980	1000.553060	-83.526358	259.939227	944.371844	-80.847548	206.601297	1032.448783	-96.019232	400.785045	868.673401	-100.604117	392.287442	864.995287	-211.084513	336.483573	776.356637	-83.111726	325.413260	689.848162	-96.300669	273.586359	620.387148	-104.016248	353.023590	681.327375	-121.485121	227.215010	495.857829	-120.165365	240.539447	529.040484	-196.660416	155.433795	464.639567	-167.316690	448.612548	437.249781	-160.256207	347.104106	415.879592	-95.137435	47.156799	940.839514	-469.975179	115.739308	890.116457	-473.639597	145.778918	909.756068	-462.066194	149.227578	805.377262	-477.833950	218.924783	671.257771	-453.081240	214.238613	662.600028	-342.873146	124.502378	582.435350	-468.483324	89.482020	503.215338	-453.324320	17.035477	452.472576	-446.773121	115.873384	486.401026	-431.015769	-53.342885	350.696899	-431.895370	-17.892639	372.993631	-357.882421	-123.590430	325.357895	-386.378004	155.873171	236.493802	-403.068254	43.034770	236.942413	-462.199022	-265.372624	893.814533	-286.216020	-53.553756	79.123201	-474.987647	-53.255227	78.774280	-77.282453	
3	0.0150	393.332240	1396.142507	-161.860131	387.352711	1400.761964	-455.360884	378.795208	1477.706599	-309.175215	357.000738	1319.366255	-306.604715	492.720142	1156.145595	-57.855465	680.349356	965.752551	-86.643064	461.352479	1142.692535	-552.858382	674.638921	966.664434	-506.647645	-112.210556	1148.719267	-281.380314	25.110665	1169.752577	-426.458013	33.039174	1196.229150	-146.218464	82.542679	1124.965752	-392.410049	79.888651	1135.704574	-173.021461	-84.717442	1197.982034	-242.108704	-83.963934	1197.757079	-329.086441	3.784854	1064.416280	-107.764437	-32.208143	1057.967650	-448.057367	104.393838	1013.453682	-90.640406	192.019980	1000.599980	-83.596054	259.938435	944.355897	-80.961345	206.637100	1032.477462	-96.088305	400.837754	868.735167	-100.711786	392.295301	865.009238	-211.203890	336.514961	776.415264	-83.236211	324.338038	688.919646	-96.979311	273.694969	620.333676	-104.070506	353.031312	681.370949	-121.544148	226.932967	496.383457	-119.899437	240.623173	529.016916	-196.685482	155.424140	464.666622	-167.315345	448.616909	437.261673	-160.259484	347.152665	415.884358	-95.156549	47.135569	940.818759	-469.994960	115.867393	889.572186	-473.416354	145.580871	909.651875	-461.880927	149.537315	805.479139	-477.417613	219.122548	671.112169	-452.526623	214.232485	662.597128	-342.890290	124.503375	582.418745	-468.498248	89.476813	503.207251	-453.346303	17.012401	452.453345	-446.783266	115.624678	486.658907	-430.726756	-53.386752	350.758399	-431.950963	-17.887693	372.961172	-357.898543	-123.592860	325.335108	-386.387010	155.878440	236.460353	-403.057385	43.041389	236.917959	-462.207158	-265.431259	893.866291	-285.795580	-53.562057	79.129260	-474.977812	-53.249082	78.774792	-77.276276	
